Coordinates
version=1
nRows=13
nColumns=36
inDegrees=yes

Units are S.I. units (second, meters, Newtons, ...)
If the header above contains a line with 'inDegrees', this indicates whether rotational values are in degrees (yes) or radians (no).

endheader
time	pelvis_tilt	pelvis_list	pelvis_rotation	pelvis_tx	pelvis_ty	pelvis_tz	hip_flexion_r	hip_adduction_r	hip_rotation_r	knee_angle_r	knee_angle_r_beta	ankle_angle_r	subtalar_angle_r	mtp_angle_r	hip_flexion_l	hip_adduction_l	hip_rotation_l	knee_angle_l	knee_angle_l_beta	ankle_angle_l	subtalar_angle_l	mtp_angle_l	lumbar_extension	lumbar_bending	lumbar_rotation	arm_flex_r	arm_add_r	arm_rot_r	elbow_flex_r	pro_sup_r	arm_flex_l	arm_add_l	arm_rot_l	elbow_flex_l	pro_sup_l
      2.95000000	     -4.70783064	     -4.29433274	     19.19661594	      0.64352460	      0.90416010	     -0.01690693	     32.37982793	      1.08227346	     -4.64792865	      7.28466318	      0.12714136	      3.95933464	     -0.00399445	     -7.49999987	      6.30139409	      0.87068442	     -2.43711181	     17.46644010	      0.30484689	     21.33272337	      0.29869780	     -7.49999987	     14.20859481	     -7.93321412	      1.36049883	     23.86507011	      0.79416109	     54.70028374	    126.12056014	     94.78412388	     20.93001554	     -5.33713644	     60.22761148	    131.72754419	     98.25284233
      2.96666670	     -4.59449470	     -4.23538267	     19.15454000	      0.64337002	      0.90459955	     -0.01687741	     32.28001493	      1.10166169	     -4.52414533	      7.38441335	      0.12888233	      3.92919836	     -0.25016717	     -7.49999987	      5.96455415	      0.91502960	     -2.38103456	     17.22879306	      0.30069917	     21.11732881	      0.19207522	     -7.49999987	     14.00982114	     -7.69473608	      1.45768158	     23.60178623	      0.64628565	     54.62085864	    126.19442384	     93.92807695	     21.16304733	     -5.17323052	     60.15501651	    131.25866499	     97.69180079
      2.98333330	     -4.66684840	     -4.11735028	     19.10815889	      0.64328559	      0.90469673	     -0.01680246	     32.29385904	      1.00298932	     -4.41271458	      7.26687103	      0.12683083	      3.84444452	     -0.15071328	     -7.49999987	      5.87935846	      1.11976645	     -2.12450998	     16.93956150	      0.29565112	     21.13088038	     -0.04284282	     -7.49999987	     14.03424172	     -7.58312681	      1.51455260	     23.28286058	      0.49834191	     54.21236349	    126.10203999	     91.62305488	     21.11821263	     -5.10194928	     59.77113944	    131.35212575	     95.44785055
      3.00000000	     -4.43243921	     -3.94237751	     19.11356089	      0.64290911	      0.90704599	     -0.01651154	     31.98488261	      0.91176827	     -4.28076079	      7.26385746	      0.12677823	      3.73567043	     -0.37955948	     -7.49999987	      5.38065366	      1.23650867	     -2.03100289	     16.66299751	      0.29082417	     20.91054352	     -0.04891727	     -7.49999987	     13.54914015	     -7.50254002	      1.46238669	     23.12212840	      0.38098265	     54.07237519	    125.77115349	     90.20309412	     21.43328546	     -5.03247558	     59.66569551	    130.84653600	     94.16447494
      3.01666670	     -4.39416961	     -3.85399699	     19.03018944	      0.64289775	      0.90486252	     -0.01623990	     31.87325825	      0.88690051	     -4.01908725	      7.14708011	      0.12474008	      3.57360049	     -0.44680847	     -7.49999987	      5.21633338	      1.33562583	     -1.97050696	     16.44861524	      0.28708249	     21.06051443	     -0.06822016	     -7.49999987	     13.41074640	     -7.43473172	      1.59839901	     22.94354375	      0.24295990	     53.16722788	    125.50169330	     95.06259784	     21.73139397	     -4.83531612	     59.76182704	    130.41941288	     99.97289757
      3.03333330	     -4.44187357	     -3.80100051	     18.88597176	      0.64291691	      0.90482407	     -0.01610899	     32.00522604	      0.88022912	     -3.84791281	      7.31745562	      0.12771369	      3.58613667	     -0.55097907	     -7.49999987	      5.13830006	      1.42498427	     -1.94316341	     16.32801491	      0.28497762	     20.92865501	     -0.29333558	     -7.49999987	     13.33690712	     -7.32695100	      1.49139748	     22.83215970	      0.13171233	     52.85651628	    125.06309338	     93.57437517	     21.73251434	     -4.93959925	     59.79885344	    130.05333142	     98.72128830
      3.05000000	     -4.29301574	     -3.72629193	     18.82261562	      0.64288270	      0.90508878	     -0.01605201	     31.81815759	      0.86450222	     -3.63801773	      7.34309681	      0.12816122	      3.44352279	     -0.71367787	     -7.49999987	      5.01258236	      1.47226360	     -1.92101577	     16.36303345	      0.28558881	     21.10592449	     -0.40984364	     -7.49999987	     13.01611796	     -7.25786683	      1.86014803	     22.77058324	     -0.25820799	     52.07716776	    125.36249927	     93.38404648	     22.29293294	     -4.73383444	     60.38020655	    129.66526709	     98.41396814
      3.06666670	     -4.45019277	     -3.77833760	     18.73639520	      0.64295328	      0.90490415	     -0.01609077	     32.07268154	      0.87630964	     -3.55382205	      7.56272510	      0.13199445	      3.49455587	     -0.79619252	     -7.49999987	      5.22969803	      1.49898793	     -1.96413550	     16.48827829	      0.28777474	     21.01659956	     -0.62804622	     -7.49999987	     13.19984336	     -7.09008808	      1.82196173	     23.02248705	     -0.21258349	     51.98378443	    125.09810641	     92.57603706	     22.28030313	     -4.75148690	     60.23192958	    129.26903967	     97.49977503
      3.08333330	     -4.23705201	     -3.65673270	     18.69178658	      0.64310424	      0.90339567	     -0.01611549	     31.81848782	      0.87030450	     -3.26271969	      7.45094112	      0.13004345	      3.36309731	     -1.07709792	     -7.49999987	      4.98609764	      1.57467939	     -1.82468021	     16.46829466	      0.28742596	     21.08890738	     -0.84486656	     -7.49999987	     12.62554861	     -6.99703391	      1.82972587	     23.46244159	     -0.14730264	     52.19093196	    125.65341872	     95.55018843	     22.38739311	     -4.73728952	     60.28625490	    129.60453288	     99.84584431
      3.10000000	     -4.26911182	     -3.66086832	     18.68479744	      0.64305023	      0.90362455	     -0.01604348	     31.81050057	      0.90705590	     -3.07230844	      7.39894442	      0.12913594	      3.42519674	     -1.30149833	     -7.49999987	      4.94437701	      1.60882342	     -1.75726445	     16.47330368	      0.28751339	     21.03468143	     -1.05647832	     -7.49999987	     12.53673800	     -6.88404230	      1.76469961	     23.70013669	      0.01143905	     52.75214928	    125.92665550	     93.61533017	     22.33120657	     -4.88101269	     59.97719107	    129.25498647	     97.95106316
      3.11666670	     -4.25405269	     -3.57981945	     18.66947258	      0.64300110	      0.90596891	     -0.01562151	     31.58892565	      0.86327642	     -2.89986796	      7.12635706	      0.12437839	      3.37491356	     -1.24500495	     -7.49999987	      4.83565347	      1.72029108	     -1.54849134	     16.30089996	      0.28450438	     21.06498569	     -1.23828944	     -7.49999987	     12.34161103	     -6.84307479	      1.75824356	     23.92977763	      0.21243748	     53.37705154	    125.84279593	     96.25229992	     22.30023059	     -5.11139626	     60.17648673	    129.16007363	     99.79601236
      3.13333330	     -4.29263141	     -3.54693333	     18.65721605	      0.64326920	      0.90795207	     -0.01578088	     31.43262246	      0.83222661	     -2.69114562	      7.00529846	      0.12226552	      3.41441428	     -1.36255837	     -7.49999987	      4.79299807	      1.77290604	     -1.45924329	     16.24970765	      0.28361090	     20.71403602	     -1.50472927	     -7.49999987	     12.22312417	     -6.75246487	      1.72553898	     24.02443121	      0.26937125	     53.96941919	    125.59770537	     96.52398304	     22.09464301	     -5.44423829	     60.44323660	    129.04996482	     99.98337941
      3.15000000	     -4.39911537	     -3.50741754	     18.67502304	      0.64343269	      0.90552824	     -0.01556263	     31.33347978	      0.76433162	     -2.44849652	      6.60713342	      0.11531623	      3.34542691	     -1.23387972	     -7.49999987	      4.77130508	      1.87437562	     -1.32139993	     16.01776640	      0.27956276	     20.72877219	     -1.55868376	     -7.49999987	     12.20374602	     -6.71877634	      1.65575444	     24.07894464	      0.26478190	     53.94146405	    125.56938236	     96.75526491	     21.92583636	     -5.69322262	     59.98675316	    128.95926318	    100.02437562
